HIERARCHY
ROOT Pelvis
{
	OFFSET 0.000000 0.000000 0.000000
	CHANNELS 6 Xposition Yposition Zposition Xrotation Yrotation Zrotation
	JOINT LeftUpLeg_virtual
	{
		OFFSET 0.000000 0.000000 0.000000
		CHANNELS 3 Xrotation Yrotation Zrotation
		JOINT LeftUpLeg
		{
			OFFSET 18.735201 -5.666702 -4.541200
			CHANNELS 3 Xrotation Yrotation Zrotation
			JOINT LeftLeg
			{
				OFFSET -0.021200 -31.938179 0.493100
				CHANNELS 3 Xrotation Yrotation Zrotation
				JOINT LeftFoot
				{
					OFFSET 0.021200 -31.938179 -4.336299
					CHANNELS 3 Xrotation Yrotation Zrotation
					JOINT LeftToeBase
					{
						OFFSET 0.943001 -26.722000 15.023500
						CHANNELS 3 Xrotation Yrotation Zrotation
						End Site
						{
							OFFSET 0 0 0
						}
					}
				}
			}
		}
	}
	JOINT RightUpLeg_virtual
	{
		OFFSET 0.000000 0.000000 0.000000
		CHANNELS 3 Xrotation Yrotation Zrotation
		JOINT RightUpLeg
		{
			OFFSET -18.735201 -5.666702 -4.541200
			CHANNELS 3 Xrotation Yrotation Zrotation
			JOINT RightLeg
			{
				OFFSET 0.018946 -31.938133 0.493100
				CHANNELS 3 Xrotation Yrotation Zrotation
				JOINT RightFoot
				{
					OFFSET -0.018946 -31.938126 -4.336299
					CHANNELS 3 Xrotation Yrotation Zrotation
					JOINT RightToeBase
					{
						OFFSET -0.943001 -26.722004 15.023500
						CHANNELS 3 Xrotation Yrotation Zrotation
						End Site
						{
							OFFSET 0 0 0
						}
					}
				}
			}
		}
	}
	JOINT Hips_virtual
	{
		OFFSET 0.000000 0.000000 0.000000
		CHANNELS 3 Xrotation Yrotation Zrotation
		JOINT Hips
		{
			OFFSET -0.000000 -0.000000 -0.000000
			CHANNELS 3 Xrotation Yrotation Zrotation
			JOINT Spine
			{
				OFFSET 0.000000 10.199997 -0.299500
				CHANNELS 3 Xrotation Yrotation Zrotation
				JOINT Spine1
				{
					OFFSET 0.000000 11.900002 -1.516600
					CHANNELS 3 Xrotation Yrotation Zrotation
					JOINT Spine2
					{
						OFFSET 0.000000 13.600006 -2.842500
						CHANNELS 3 Xrotation Yrotation Zrotation
						JOINT Neck_virtual
						{
							OFFSET 0.000000 0.000000 0.000000
							CHANNELS 3 Xrotation Yrotation Zrotation
							JOINT Neck
							{
								OFFSET 0.000000 9.624100 -2.890100
								CHANNELS 3 Xrotation Yrotation Zrotation
								JOINT Head
								{
									OFFSET 0.000000 14.068802 -1.351900
									CHANNELS 3 Xrotation Yrotation Zrotation
									End Site
									{
										OFFSET 0 0 0
									}
								}
							}
						}
						JOINT LeftShoulder_virtual
						{
							OFFSET 0.000000 0.000000 0.000000
							CHANNELS 3 Xrotation Yrotation Zrotation
							JOINT LeftShoulder
							{
								OFFSET 15.263000 10.923401 -0.547700
								CHANNELS 3 Xrotation Yrotation Zrotation
								JOINT LeftArm
								{
									OFFSET 25.438599 -2.830597 -13.032500
									CHANNELS 3 Xrotation Yrotation Zrotation
									JOINT LeftForeArm
									{
										OFFSET 29.960503 0.000000 0.000000
										CHANNELS 3 Xrotation Yrotation Zrotation
										JOINT LeftHand
										{
											OFFSET 27.849251 0.000000 0.000000
											CHANNELS 3 Xrotation Yrotation Zrotation
											End Site
											{
												OFFSET 0 0 0
											}
										}
									}
								}
							}
						}
						JOINT RightShoulder_virtual
						{
							OFFSET 0.000000 0.000000 0.000000
							CHANNELS 3 Xrotation Yrotation Zrotation
							JOINT RightShoulder
							{
								OFFSET -15.263000 10.923401 -0.547700
								CHANNELS 3 Xrotation Yrotation Zrotation
								JOINT RightArm
								{
									OFFSET -25.438599 -2.830597 -13.032500
									CHANNELS 3 Xrotation Yrotation Zrotation
									JOINT RightForeArm
									{
										OFFSET -29.960503 0.000000 0.000000
										CHANNELS 3 Xrotation Yrotation Zrotation
										JOINT RightHand
										{
											OFFSET -27.849251 0.000000 0.000000
											CHANNELS 3 Xrotation Yrotation Zrotation
											End Site
											{
												OFFSET 0 0 0
											}
										}
									}
								}
							}
						}
					}
				}
			}
		}
	}
}
MOTION
Frames: 5
Frame Time: 0.03333333
-1.322713 74.085289 -47.531013 0.000000 0.000000 0.000000 26.453980 -82.443184 27.723494 -46.521798 -4.203579 25.794942 77.128586 11.066418 2.770552 -25.731906 8.940204 -32.066051 0.000000 0.000000 0.000000 19.635356 -83.278126 20.291993 -64.065043 0.153188 -16.481945 89.765836 20.825523 -8.126590 -41.811659 -3.316021 5.817695 0.000000 0.000000 0.000000 17.925628 -80.368855 19.518082 -1.258392 -2.098225 -3.018236 6.852818 11.378689 -3.535503 11.536699 17.200884 -8.503812 0.000000 0.000000 0.000000 9.273636 17.450691 -7.727446 0.101995 1.282350 0.921053 0.000000 0.000000 0.000000 11.156410 17.261210 -8.830237 3.381058 -4.951217 4.130227 -75.547288 -30.304214 -63.959510 38.023455 -72.541759 34.311291 0.000000 0.000000 0.000000 9.261336 17.841275 -7.429768 6.631334 6.818184 -6.060211 -41.085463 0.638206 26.505403 -15.755947 47.441719 6.773149 0.000000 0.000000 0.000000 
-0.405125 73.031395 -48.329643 0.000000 0.000000 0.000000 34.110518 -78.747013 35.174009 -53.968350 -5.634878 26.488097 78.652975 10.165766 1.495797 -23.543939 8.060461 -31.506180 0.000000 0.000000 0.000000 29.535251 -79.636461 30.484545 -68.321727 1.457483 -17.037572 92.447464 19.876006 -7.839348 -42.182463 -4.099926 4.641134 0.000000 0.000000 0.000000 28.439511 -77.609343 29.837753 -1.002043 -2.045968 -2.965162 8.004071 11.131733 -3.682897 11.869084 16.543367 -8.502771 0.000000 0.000000 0.000000 9.523985 16.781298 -7.720574 0.018149 1.752895 0.829941 0.000000 0.000000 0.000000 11.394104 16.586826 -8.702656 3.115794 -5.587436 2.111078 -61.594441 -22.887387 -60.016572 37.361722 -69.990745 32.928779 0.000000 0.000000 0.000000 9.538273 17.127085 -7.471748 5.799142 6.441240 -3.538175 -35.118859 -4.861315 27.541823 -14.809616 45.412166 9.542164 0.000000 0.000000 0.000000 
0.225526 72.480110 -48.681618 0.000000 0.000000 0.000000 36.111012 -74.566384 37.075561 -61.214785 -7.020844 26.588045 79.529070 9.023461 0.351166 -19.860553 6.948360 -29.824772 0.000000 0.000000 0.000000 32.775076 -75.342519 33.960384 -72.017918 2.855194 -17.563189 93.314837 18.684659 -7.320709 -40.220542 -4.528028 4.343144 0.000000 0.000000 0.000000 33.922951 -74.147980 35.203464 -0.590956 -2.234911 -2.687982 8.663943 10.862007 -3.773972 11.951227 15.932791 -8.251173 0.000000 0.000000 0.000000 9.664351 16.152166 -7.492004 -0.135520 2.210065 0.755803 0.000000 0.000000 0.000000 11.474874 15.982571 -8.303277 2.919635 -5.251658 0.499651 -47.650873 -15.898969 -57.899671 32.133568 -65.354781 27.443763 0.000000 0.000000 0.000000 9.805263 16.429086 -7.294280 4.934122 6.305127 -0.714873 -27.322990 -12.077405 29.946766 -14.594618 44.763403 12.391269 0.000000 0.000000 0.000000 
0.534395 72.248558 -48.567703 0.000000 0.000000 0.000000 36.076041 -70.551510 37.035198 -66.821202 -8.003897 26.204629 79.874138 7.583473 -0.381819 -16.205923 5.873666 -27.543354 0.000000 0.000000 0.000000 33.716665 -71.188767 35.052831 -74.242210 4.439258 -17.647583 92.810844 17.397960 -6.899579 -37.582979 -4.422209 5.392314 0.000000 0.000000 0.000000 36.136834 -70.640931 37.360213 -0.441900 -2.518052 -2.182073 8.847455 10.607554 -3.766302 11.873877 15.357373 -7.863440 0.000000 0.000000 0.000000 9.741909 15.540405 -7.153854 -0.336917 2.636708 0.706272 0.000000 0.000000 0.000000 11.430609 15.407466 -7.769022 2.730870 -4.385637 -0.933506 -34.762671 -10.118884 -58.185289 26.245519 -59.698544 21.600306 0.000000 0.000000 0.000000 10.059112 15.759840 -6.978095 4.124397 6.548535 2.404404 -17.903241 -19.603616 34.369707 -14.827050 44.876723 14.859148 0.000000 0.000000 0.000000 
0.576244 72.335388 -48.281860 0.000000 0.000000 0.000000 35.375172 -67.391892 36.419375 -69.728226 -8.041306 25.481674 79.109580 5.969929 -0.770322 -13.552920 4.753978 -25.641483 0.000000 0.000000 0.000000 33.685287 -67.714605 35.116407 -74.475085 5.730852 -17.571901 91.187902 15.975565 -6.557259 -35.842695 -4.007263 7.595053 0.000000 0.000000 0.000000 36.553601 -67.745327 37.777435 -0.472460 -2.502565 -2.028753 8.624625 10.395772 -3.595315 11.740218 14.790556 -7.417698 0.000000 0.000000 0.000000 9.772950 14.926407 -6.773097 -0.548434 3.008544 0.692469 0.000000 0.000000 0.000000 11.302980 14.844317 -7.228798 2.532502 -3.388259 -2.365133 -24.111642 -5.676956 -60.524847 21.491796 -54.227939 17.002036 0.000000 0.000000 0.000000 10.275171 15.123051 -6.587650 3.395353 7.088451 5.502323 -8.232400 -25.553930 40.139601 -14.972075 44.680878 16.497209 0.000000 0.000000 0.000000 
